HIERARCHY
ROOT Hips
{
	OFFSET 0.000000 100.481300 0.000000
	CHANNELS 6 Xposition Yposition Zposition Xrotation Yrotation Zrotation
	JOINT Spine
	{
		OFFSET -0.279200 12.230698 -2.892100
		CHANNELS 3 Xrotation Yrotation Zrotation
		JOINT Spine1
		{
			OFFSET -0.325700 14.269203 -3.374200
			CHANNELS 3 Xrotation Yrotation Zrotation
			JOINT Spine2
			{
				OFFSET -0.372300 16.307602 -0.352600
				CHANNELS 3 Xrotation Yrotation Zrotation
				JOINT Neck
				{
					OFFSET -0.418800 17.814194 8.416900
					CHANNELS 3 Xrotation Yrotation Zrotation
					JOINT Head
					{
						OFFSET 0.000000 7.031097 3.806800
						CHANNELS 3 Xrotation Yrotation Zrotation
						JOINT HeadTop_End
						{
							OFFSET 0.000000 24.646606 12.978600
							CHANNELS 3 Xrotation Yrotation Zrotation
							End Site
							{
								OFFSET 0.000000 27.854965 0.000000
							}
						}
					}
				}
				JOINT LeftShoulder
				{
					OFFSET 16.952999 14.495407 -7.737500
					CHANNELS 3 Xrotation Yrotation Zrotation
					JOINT LeftArm
					{
						OFFSET 9.308998 -2.777710 0.208600
						CHANNELS 3 Xrotation Yrotation Zrotation
						JOINT LeftForeArm
						{
							OFFSET 29.972298 0.000000 0.000000
							CHANNELS 3 Xrotation Yrotation Zrotation
							JOINT LeftHand
							{
								OFFSET 26.026505 0.000000 0.000000
								CHANNELS 3 Xrotation Yrotation Zrotation
								JOINT LeftHandThumb1
								{
									OFFSET 12.240501 -7.147949 9.207150
									CHANNELS 3 Xrotation Yrotation Zrotation
									JOINT LeftHandThumb2
									{
										OFFSET 4.138618 -2.389435 2.389433
										CHANNELS 3 Xrotation Yrotation Zrotation
										JOINT LeftHandThumb3
										{
											OFFSET 2.726913 -1.574387 1.574386
											CHANNELS 3 Xrotation Yrotation Zrotation
											JOINT LeftHandThumb4
											{
												OFFSET 3.941010 -2.275345 2.275342
												CHANNELS 3 Xrotation Yrotation Zrotation
												End Site
												{
													OFFSET -0.005798 5.087799 0.009903
												}
											}
										}
									}
								}
								JOINT LeftHandIndex1
								{
									OFFSET 24.424698 -1.985611 5.953459
									CHANNELS 3 Xrotation Yrotation Zrotation
									JOINT LeftHandIndex2
									{
										OFFSET 6.426697 0.000000 0.000000
										CHANNELS 3 Xrotation Yrotation Zrotation
										JOINT LeftHandIndex3
										{
											OFFSET 5.337898 0.000000 0.000000
											CHANNELS 3 Xrotation Yrotation Zrotation
											JOINT LeftHandIndex4
											{
												OFFSET 4.409401 0.000000 0.000000
												CHANNELS 3 Xrotation Yrotation Zrotation
												End Site
												{
													OFFSET 0.000000 4.409363 0.014373
												}
											}
										}
									}
								}
								JOINT LeftHandMiddle1
								{
									OFFSET 23.810104 0.000000 0.000000
									CHANNELS 3 Xrotation Yrotation Zrotation
									JOINT LeftHandMiddle2
									{
										OFFSET 7.176498 0.000000 0.000000
										CHANNELS 3 Xrotation Yrotation Zrotation
										JOINT LeftHandMiddle3
										{
											OFFSET 6.774902 0.000000 0.000000
											CHANNELS 3 Xrotation Yrotation Zrotation
											JOINT LeftHandMiddle4
											{
												OFFSET 5.403328 0.000000 0.000000
												CHANNELS 3 Xrotation Yrotation Zrotation
												End Site
												{
													OFFSET -0.027702 5.403244 0.017414
												}
											}
										}
									}
								}
								JOINT LeftHandRing1
								{
									OFFSET 22.908401 -0.839279 -6.020567
									CHANNELS 3 Xrotation Yrotation Zrotation
									JOINT LeftHandRing2
									{
										OFFSET 6.337502 0.000000 0.000000
										CHANNELS 3 Xrotation Yrotation Zrotation
										JOINT LeftHandRing3
										{
											OFFSET 5.779297 0.000000 0.000000
											CHANNELS 3 Xrotation Yrotation Zrotation
											JOINT LeftHandRing4
											{
												OFFSET 4.965698 0.000000 0.000000
												CHANNELS 3 Xrotation Yrotation Zrotation
												End Site
												{
													OFFSET 0.000000 4.965668 0.016186
												}
											}
										}
									}
								}
								JOINT LeftHandPinky1
								{
									OFFSET 20.037003 -1.530319 -10.950146
									CHANNELS 3 Xrotation Yrotation Zrotation
									JOINT LeftHandPinky2
									{
										OFFSET 5.254700 0.000000 0.000000
										CHANNELS 3 Xrotation Yrotation Zrotation
										JOINT LeftHandPinky3
										{
											OFFSET 4.810204 0.000000 0.000000
											CHANNELS 3 Xrotation Yrotation Zrotation
											JOINT LeftHandPinky4
											{
												OFFSET 3.647202 0.000000 0.000000
												CHANNELS 3 Xrotation Yrotation Zrotation
												End Site
												{
													OFFSET 0.000000 3.647186 0.011889
												}
											}
										}
									}
								}
							}
						}
					}
				}
				JOINT RightShoulder
				{
					OFFSET -15.141001 14.495407 -7.737500
					CHANNELS 3 Xrotation Yrotation Zrotation
					JOINT RightArm
					{
						OFFSET -9.308998 -2.777710 0.208500
						CHANNELS 3 Xrotation Yrotation Zrotation
						JOINT RightForeArm
						{
							OFFSET -29.972300 0.000000 0.000000
							CHANNELS 3 Xrotation Yrotation Zrotation
							JOINT RightHand
							{
								OFFSET -26.026505 0.000000 0.000000
								CHANNELS 3 Xrotation Yrotation Zrotation
								JOINT RightHandThumb1
								{
									OFFSET -12.240601 -7.148026 9.207092
									CHANNELS 3 Xrotation Yrotation Zrotation
									JOINT RightHandThumb2
									{
										OFFSET -4.138618 -2.389435 2.389433
										CHANNELS 3 Xrotation Yrotation Zrotation
										JOINT RightHandThumb3
										{
											OFFSET -2.726974 -1.574417 1.574421
											CHANNELS 3 Xrotation Yrotation Zrotation
											JOINT RightHandThumb4
											{
												OFFSET -3.941010 -2.275345 2.275343
												CHANNELS 3 Xrotation Yrotation Zrotation
												End Site
												{
													OFFSET 0.005814 5.087799 0.009927
												}
											}
										}
									}
								}
								JOINT RightHandIndex1
								{
									OFFSET -24.424698 -1.985657 5.953444
									CHANNELS 3 Xrotation Yrotation Zrotation
									JOINT RightHandIndex2
									{
										OFFSET -6.426697 0.000000 0.000000
										CHANNELS 3 Xrotation Yrotation Zrotation
										JOINT RightHandIndex3
										{
											OFFSET -5.337898 0.000000 0.000000
											CHANNELS 3 Xrotation Yrotation Zrotation
											JOINT RightHandIndex4
											{
												OFFSET -4.409401 0.000000 0.000000
												CHANNELS 3 Xrotation Yrotation Zrotation
												End Site
												{
													OFFSET 0.000000 4.409363 0.014408
												}
											}
										}
									}
								}
								JOINT RightHandMiddle1
								{
									OFFSET -23.810097 0.000000 0.000000
									CHANNELS 3 Xrotation Yrotation Zrotation
									JOINT RightHandMiddle2
									{
										OFFSET -7.176498 0.000000 0.000000
										CHANNELS 3 Xrotation Yrotation Zrotation
										JOINT RightHandMiddle3
										{
											OFFSET -6.774902 0.000000 0.000000
											CHANNELS 3 Xrotation Yrotation Zrotation
											JOINT RightHandMiddle4
											{
												OFFSET -5.403328 0.000000 0.000000
												CHANNELS 3 Xrotation Yrotation Zrotation
												End Site
												{
													OFFSET 0.027702 5.403244 0.017457
												}
											}
										}
									}
								}
								JOINT RightHandRing1
								{
									OFFSET -22.908302 -0.839325 -6.020576
									CHANNELS 3 Xrotation Yrotation Zrotation
									JOINT RightHandRing2
									{
										OFFSET -6.337502 0.000000 0.000000
										CHANNELS 3 Xrotation Yrotation Zrotation
										JOINT RightHandRing3
										{
											OFFSET -5.779297 0.000000 0.000000
											CHANNELS 3 Xrotation Yrotation Zrotation
											JOINT RightHandRing4
											{
												OFFSET -4.965698 0.000000 0.000000
												CHANNELS 3 Xrotation Yrotation Zrotation
												End Site
												{
													OFFSET 0.000000 4.965668 0.016226
												}
											}
										}
									}
								}
								JOINT RightHandPinky1
								{
									OFFSET -20.037003 -1.530334 -10.950259
									CHANNELS 3 Xrotation Yrotation Zrotation
									JOINT RightHandPinky2
									{
										OFFSET -5.254700 0.000000 0.000000
										CHANNELS 3 Xrotation Yrotation Zrotation
										JOINT RightHandPinky3
										{
											OFFSET -4.810204 0.000000 0.000000
											CHANNELS 3 Xrotation Yrotation Zrotation
											JOINT RightHandPinky4
											{
												OFFSET -3.647202 0.000000 0.000000
												CHANNELS 3 Xrotation Yrotation Zrotation
												End Site
												{
													OFFSET 0.000000 3.647186 0.011917
												}
											}
										}
									}
								}
							}
						}
					}
				}
			}
		}
	}
	JOINT LeftUpLeg
	{
		OFFSET 15.427100 -6.655098 0.678600
		CHANNELS 3 Xrotation Yrotation Zrotation
		JOINT LeftLeg
		{
			OFFSET 4.081073 -39.591068 13.024000
			CHANNELS 3 Xrotation Yrotation Zrotation
			JOINT LeftFoot
			{
				OFFSET -4.081074 -37.707932 -15.979700
				CHANNELS 3 Xrotation Yrotation Zrotation
				JOINT LeftToeBase
				{
					OFFSET 5.346399 -15.068900 20.645000
					CHANNELS 3 Xrotation Yrotation Zrotation
					JOINT LeftToe_End
					{
						OFFSET 2.754700 0.931300 11.300900
						CHANNELS 3 Xrotation Yrotation Zrotation
						End Site
						{
							OFFSET 0.000000 11.669021 0.000000
						}
					}
				}
			}
		}
	}
	JOINT RightUpLeg
	{
		OFFSET -15.569500 -6.655098 0.678600
		CHANNELS 3 Xrotation Yrotation Zrotation
		JOINT RightLeg
		{
			OFFSET -4.081825 -39.591045 13.023800
			CHANNELS 3 Xrotation Yrotation Zrotation
			JOINT RightFoot
			{
				OFFSET 4.081824 -37.707954 -15.979600
				CHANNELS 3 Xrotation Yrotation Zrotation
				JOINT RightToeBase
				{
					OFFSET -5.346400 -15.068900 20.645000
					CHANNELS 3 Xrotation Yrotation Zrotation
					JOINT RightToe_End
					{
						OFFSET -2.754700 0.931300 11.300900
						CHANNELS 3 Xrotation Yrotation Zrotation
						End Site
						{
							OFFSET 0.000000 11.669021 0.000000
						}
					}
				}
			}
		}
	}
}
MOTION
Frames: 6
Frame Time: 0.033333
51.219345 133.792847 251.505463 30.056446 4.223152 45.140314 31.428019 -12.584098 -10.042541 1.719201 -3.347754 1.443404 1.950095 -3.139931 1.717233 -15.565820 6.912190 -14.215991 -25.552077 -1.763631 10.172920 -0.000001 0.000000 0.000002 0.581660 -5.248833 -10.098271 -53.756567 -33.981250 -88.613228 -0.000001 -0.359842 0.000002 35.557179 -13.086328 48.482168 10.135203 8.183628 8.016871 3.486567 2.891085 0.326535 -0.579467 1.574997 2.538717 -0.000001 -0.000002 -0.000005 -0.000000 -0.000001 -0.000001 -0.000000 -0.000001 0.000002 -0.000000 -0.000001 0.000000 0.000000 -0.000001 0.000001 -0.000004 -0.001933 0.015971 0.000010 0.001935 -0.015966 0.000002 -0.000008 -0.000001 0.000000 0.000000 0.000000 -0.000000 -0.000001 0.000000 0.000000 0.000005 -0.000155 -0.000004 0.000005 -0.000000 0.000001 -0.000001 -0.000006 -0.018090 4.054256 0.511062 -0.018094 -4.054263 -0.511070 -0.000000 -0.000000 0.000000 0.000000 -0.000000 0.000001 0.447128 -0.007919 4.998931 -37.508940 59.068740 69.489826 0.000011 37.867050 -0.000011 20.089209 -21.401165 -71.427052 -9.967899 2.159847 -17.475985 5.065274 -13.326003 -0.557593 -0.484855 -8.725057 -3.015443 -0.000002 0.000001 0.000001 -0.000003 -0.000002 -0.000001 -0.000009 0.000009 0.000025 0.000006 -0.000010 -0.000006 0.000002 -0.000002 -0.000001 -0.000002 -0.000002 0.000001 -0.000001 0.000008 0.000014 -0.000007 0.000003 -0.000001 0.000000 -0.000002 0.000003 -0.000005 0.000009 0.000008 -0.000004 -0.000002 0.000005 0.000004 -0.000013 -0.000005 -0.000002 0.000003 -0.000000 -0.000003 -0.000002 0.000001 -0.000010 0.000005 0.000013 0.000005 -0.000009 -0.000008 0.000004 -0.000003 0.000000 -70.460914 -6.001651 7.031337 66.066822 13.472446 3.843325 17.694995 4.707824 5.344583 -3.562547 0.000002 0.000010 -0.000001 -0.000001 -0.000001 -52.190684 -4.689239 21.989323 41.668167 4.944044 -7.837366 24.764232 15.417907 24.881901 -2.990831 0.000002 0.000029 -0.000001 0.000000 0.000000 
50.040855 137.035294 257.398041 26.512971 3.778928 49.262377 32.517048 -14.535795 -11.753494 1.787896 -3.630499 1.676915 2.073219 -3.378813 1.985983 -11.199479 6.588976 -16.272302 -26.297990 -3.393658 7.038461 -0.000002 -0.000000 -0.000001 0.577024 -5.080679 -10.472327 -52.029649 -33.145866 -89.248559 0.000002 -0.000001 -0.000008 39.261669 -12.687946 31.672332 13.335154 10.888738 5.939608 3.785906 6.194582 0.605204 -0.579465 1.574998 2.538702 0.000001 0.000000 -0.000001 0.000034 -0.020439 0.169391 -0.000000 -0.000001 0.000001 0.000031 -0.020448 0.169395 0.000000 -0.000001 -0.000001 0.000050 -0.022373 0.185362 0.000000 -0.000066 -0.000174 0.000027 -0.020430 0.169402 0.000000 -0.000001 0.000001 0.000034 -0.020439 0.169392 0.000005 -0.000002 0.000071 0.000022 -0.020433 0.169396 0.000000 -0.000000 0.000001 -0.030071 4.033750 0.680864 -0.018110 -4.056669 -0.491026 0.000015 -0.020453 0.169383 -0.000000 -0.000001 -0.000002 0.430700 0.001945 4.443111 -31.243280 58.434693 66.907140 -0.000002 34.516002 0.000020 20.410355 -19.427894 -70.648984 -9.967907 2.159868 -17.475980 5.065275 -13.326035 -0.557597 -0.484856 -8.725049 -3.015439 -0.000001 -0.000001 -0.000004 0.000002 -0.000001 -0.000001 0.000001 -0.000001 0.000001 0.000001 -0.000003 0.000003 -0.000000 0.000002 -0.000003 0.000003 -0.000001 0.000001 -0.000000 0.000002 0.000001 -0.000005 0.000009 -0.000001 0.000002 0.000004 0.000000 0.000001 0.000001 0.000006 -0.000002 0.000003 0.000015 -0.000000 -0.000003 0.000002 0.000001 0.000002 -0.000002 0.000002 -0.000001 0.000001 -0.000009 0.000018 0.000023 0.000004 0.000003 0.000001 -0.000001 0.000002 -0.000001 -65.787084 -5.314280 8.815586 55.145827 12.475679 4.035720 10.351770 4.735605 -2.873824 1.617728 0.000002 -0.000000 0.000002 0.000001 0.000000 -50.120720 -4.618684 22.852150 31.110419 5.316788 -7.214092 26.521092 13.857160 26.749131 -2.832049 0.000007 0.000003 0.000001 -0.000000 -0.000000 
49.314354 138.715729 263.192810 22.598569 2.238625 52.534871 33.267307 -15.780643 -12.339148 1.893572 -3.884223 1.922777 2.221248 -3.593682 2.257983 -6.691643 6.128286 -17.942413 -26.819460 -3.476536 2.729508 -0.000001 -0.000001 -0.000002 0.577832 -4.893601 -10.526024 -47.691495 -34.527422 -87.976299 -0.000008 -4.942326 -0.000007 39.543452 -11.812711 7.079278 13.335184 10.888725 5.939600 4.306175 12.333246 1.083256 -0.579473 1.575010 2.538714 0.000000 0.000001 -0.000002 0.000577 0.090003 -0.745796 0.000593 0.090001 -0.745809 0.000594 0.089997 -0.745806 -0.000000 0.000001 -0.000000 0.000570 0.088083 -0.729810 0.000609 0.091926 -0.761801 0.000595 0.089999 -0.745805 0.000000 0.000000 0.000000 0.000577 0.090003 -0.745796 0.000593 0.090002 -0.745809 0.000594 0.089998 -0.745809 -0.000000 -0.000000 0.000000 0.035370 4.144150 -0.236681 -0.016704 -3.964273 -1.256779 0.000592 0.090001 -0.745806 -0.000000 0.000001 0.000000 0.416696 0.277297 3.500302 -24.173119 58.068827 64.088649 -0.000008 30.925355 0.000002 20.811892 -17.959014 -70.520604 -9.264030 1.204347 -17.131938 5.122757 -13.973397 -0.601076 -0.415510 -9.580445 -3.098723 -0.000000 0.000002 0.000001 -0.000003 0.000000 -0.000001 -0.000002 0.000001 0.000033 0.000002 -0.000002 0.000005 0.000002 0.000001 0.000002 -0.000002 0.000000 -0.000000 0.000001 -0.000005 -0.000007 -0.000009 0.000011 0.000007 -0.000002 -0.000001 -0.000001 -0.000003 0.000000 -0.000001 0.000000 0.000001 0.000029 -0.000002 0.000003 -0.000002 -0.000002 -0.000001 0.000001 -0.000003 0.000000 -0.000000 0.000004 0.000002 0.000030 -0.000001 0.000000 -0.000001 0.000001 0.000003 -0.000001 -61.376428 -4.516752 9.319271 45.517661 11.923312 4.244670 6.568444 2.439702 -5.122403 3.704816 -0.000000 0.000021 -0.000001 -0.000000 -0.000001 -48.790097 -4.967087 23.766669 22.772144 5.392723 -6.352598 30.470867 13.235356 23.846374 -3.108721 0.000005 -0.000023 -0.000000 -0.000000 -0.000000 
49.187843 139.206512 269.090393 19.047236 -0.002849 55.101749 33.103150 -16.029465 -12.242436 2.194548 -3.938145 2.060022 2.528050 -3.625272 2.383135 -2.806588 5.571097 -18.952211 -26.656036 -2.408816 -2.631223 -0.000002 0.000000 -0.000000 0.577525 -4.924323 -10.528513 -46.130340 -38.439932 -87.257729 -0.000007 -8.385917 -0.000010 39.846521 -13.470421 -21.954699 13.335177 10.888731 5.939602 4.569882 15.640360 1.321855 -0.579468 1.574997 2.538721 0.000003 -0.000002 -0.000000 0.007219 0.316068 -2.620052 0.007225 0.316071 -2.620059 0.007223 0.316080 -2.620065 0.000000 0.000000 -0.000001 0.007148 0.314147 -2.604080 0.007318 0.317996 -2.636047 0.007226 0.316074 -2.620055 -0.000000 -0.000000 -0.000001 0.007219 0.316068 -2.620052 0.007225 0.316072 -2.620059 0.007223 0.316079 -2.620066 -0.000000 0.000000 -0.000002 0.174854 4.366904 -2.116485 -0.008007 -3.738238 -3.130423 0.007227 0.316072 -2.620065 -0.000001 -0.000000 0.000002 0.418844 0.599579 2.872561 -12.654198 57.911576 57.258606 0.000001 28.813163 0.000001 20.616344 -16.580433 -72.252910 -7.533813 -1.022664 -16.296574 5.258467 -15.517309 -0.702565 -0.254479 -11.620677 -3.294030 -0.000000 0.000002 0.000002 -0.000001 0.000002 -0.000008 -0.000001 -0.000011 0.000045 -0.000007 0.000014 0.000006 -0.000000 0.000001 -0.000001 -0.000000 0.000002 -0.000009 0.000005 -0.000003 0.000072 -0.000005 0.000001 -0.000003 -0.000002 -0.000002 0.000002 -0.000002 0.000006 -0.000004 0.000005 -0.000015 0.000038 0.000004 0.000002 -0.000003 0.000002 -0.000002 0.000001 -0.000001 0.000002 -0.000009 0.000002 -0.000003 0.000004 0.000001 0.000002 -0.000004 -0.000000 -0.000000 0.000000 -58.135326 -3.950622 9.419960 37.924950 11.492970 4.598488 4.153078 0.106583 -7.255628 2.972557 0.000005 0.000009 -0.000000 -0.000000 0.000000 -48.450261 -5.485323 24.371517 16.403625 5.357244 -5.310845 35.707150 13.905806 19.000265 -3.656094 -0.000006 -0.000008 -0.000001 -0.000000 0.000000 
49.541451 138.839569 275.075867 14.415457 -2.741549 56.901579 34.076811 -16.715669 -11.176469 2.592583 -4.063760 2.043617 2.922438 -3.735439 2.369747 0.119485 4.994306 -19.102902 -25.536698 -0.888628 -8.114221 -0.000001 -0.000000 -0.000001 0.577800 -4.915527 -10.509903 -49.723907 -46.348335 -88.903334 -0.000005 -6.140019 -0.000000 38.473878 -18.388493 -46.913301 13.335171 10.888725 5.939611 4.569891 15.640355 1.321873 -0.579464 1.575003 2.538716 0.000002 -0.000004 0.000000 0.025732 0.596011 -4.944951 0.025732 0.595980 -4.944960 0.025736 0.595995 -4.944955 0.000000 -0.000001 -0.000001 0.025561 0.594071 -4.928965 0.025904 0.597911 -4.960939 0.025737 0.595994 -4.944962 0.000000 -0.000000 -0.000000 0.025732 0.596011 -4.944949 0.025731 0.595981 -4.944959 0.025735 0.595992 -4.944958 -0.000000 -0.000000 0.000000 0.358028 4.636695 -4.449705 0.013009 -3.458545 -5.453857 0.025737 0.596010 -4.944954 -0.000000 0.000000 0.000000 0.431454 0.742035 3.050993 2.139030 57.037906 47.025504 0.000003 29.534810 0.000005 19.877978 -16.257290 -73.223473 -5.372794 -3.581029 -15.270488 5.418130 -17.360353 -0.819758 -0.069926 -14.056449 -3.521478 -0.000000 -0.000003 0.000000 -0.000006 0.000013 0.000009 0.000002 -0.000002 0.000077 0.000002 0.000001 -0.000002 0.000002 -0.000001 -0.000000 -0.000005 0.000013 0.000008 0.000006 -0.000010 -0.000015 0.000007 0.000011 0.000003 0.000001 -0.000001 0.000000 -0.000008 0.000015 0.000011 0.000004 -0.000014 -0.000017 0.000000 0.000002 0.000001 -0.000003 0.000001 -0.000000 -0.000006 0.000013 0.000008 0.000005 -0.000009 -0.000017 -0.000000 -0.000001 0.000001 -0.000003 0.000002 0.000001 -55.182820 -3.807241 7.511411 32.714257 11.215123 5.950775 2.290693 0.818167 -8.637940 0.675467 -0.000001 -0.000002 -0.000000 0.000000 -0.000000 -48.461551 -6.051503 23.559696 12.788319 5.318650 -4.616717 39.734605 15.968723 15.041137 -3.287485 -0.000002 -0.000001 0.000001 0.000001 -0.000000 
50.042870 137.626114 281.074097 10.416622 -5.961509 57.640636 34.837889 -17.478497 -10.680657 2.899628 -4.191726 1.998339 3.233216 -3.851405 2.329377 2.243100 4.493703 -18.592361 -23.792288 0.625658 -12.618449 0.000000 0.000001 0.000000 0.581975 -4.789613 -10.235831 -43.547855 -61.422566 -81.016050 0.000027 -17.382866 0.000012 28.253994 -17.886334 -61.874513 13.335174 10.888732 5.939612 4.569895 15.640365 1.321842 -0.579466 1.574985 2.538728 0.000001 0.000006 -0.000001 0.061524 0.920294 -7.649131 0.061522 0.920272 -7.649131 0.061524 0.920301 -7.649133 -0.000000 0.000000 0.000000 0.061265 0.918374 -7.633146 0.061776 0.922167 -7.665117 0.061519 0.920269 -7.649131 -0.000000 -0.000002 -0.000000 0.061524 0.920294 -7.649130 0.061521 0.920273 -7.649131 0.061522 0.920283 -7.649129 -0.000001 -0.000001 -0.000000 0.584783 4.940781 -7.165480 0.051730 -3.134595 -8.155319 0.061522 0.920283 -7.649128 -0.000000 0.000002 -0.000000 0.447888 0.853709 3.491052 13.330923 54.841232 40.847403 -0.000011 30.726033 0.000010 19.701843 -16.629947 -72.819420 -3.480827 -5.630556 -14.384443 5.550130 -18.904770 -0.914724 0.078583 -16.097750 -3.707755 0.000001 0.000000 -0.000001 -0.000001 0.000003 -0.000002 -0.000005 0.000002 -0.000002 -0.000001 -0.000000 0.000001 -0.000004 0.000002 -0.000002 -0.000000 0.000003 -0.000002 0.000001 -0.000001 0.000001 0.000002 0.000003 -0.000000 0.000001 0.000000 -0.000003 -0.000003 0.000004 -0.000000 0.000002 -0.000003 -0.000002 0.000003 0.000000 -0.000002 0.000002 0.000001 -0.000002 -0.000001 0.000003 -0.000002 -0.000004 0.000009 0.000086 0.000005 -0.000003 -0.000006 0.000001 0.000001 0.000000 -53.098113 -3.670124 5.726570 30.827256 11.163876 6.910471 0.327867 4.052507 -7.002770 1.164668 -0.000002 -0.000015 0.000001 0.000000 -0.000001 -49.325031 -5.963441 22.850733 12.357588 5.383141 -5.147558 41.045390 16.247540 12.284514 -2.175357 -0.000006 -0.000052 0.000000 -0.000002 -0.000000 
